<?xml version="1.0" encoding="utf-8"?>
<!-- Generator: Adobe Illustrator 14.0.0, SVG Export Plug-In  -->
<!DOCTYPE svg PUBLIC "-//W3C//DTD SVG 1.1//EN" "http://www.w3.org/Graphics/SVG/1.1/DTD/svg11.dtd" [
	<!ENTITY ns_flows "http://ns.adobe.com/Flows/1.0/">
]>
<svg version="1.1"
	 xmlns="http://www.w3.org/2000/svg" xmlns:xlink="http://www.w3.org/1999/xlink" xmlns:a="http://ns.adobe.com/AdobeSVGViewerExtensions/3.0/"
	 x="0px" y="0px" width="386px" height="89px" viewBox="15 6.953 386 89" enable-background="new 15 6.953 386 89"
	 xml:space="preserve">
<defs>
</defs>
<g>
	<defs>
		<rect id="SVGID_1_" width="413.979" height="105.953"/>
	</defs>
	<clipPath id="SVGID_2_">
		<use xlink:href="#SVGID_1_"  overflow="visible"/>
	</clipPath>
	<path clip-path="url(#SVGID_2_)" fill="#52648F" d="M98.212,47.799c0-4.761,0.799-9.075,2.395-12.94
		c1.596-3.865,3.823-7.155,6.68-9.873c2.856-2.716,6.245-4.803,10.166-6.26c3.921-1.456,8.206-2.184,12.856-2.184
		c4.649,0,8.934,0.728,12.856,2.184c3.92,1.457,7.31,3.544,10.167,6.26c2.857,2.718,5.083,6.008,6.68,9.873
		c1.596,3.865,2.395,8.179,2.395,12.94c0,4.762-0.799,9.075-2.395,12.939c-1.597,3.865-3.823,7.156-6.68,9.874
		c-2.857,2.717-6.247,4.803-10.167,6.259c-3.922,1.456-8.207,2.185-12.856,2.185c-4.65,0-8.935-0.729-12.856-2.185
		s-7.31-3.542-10.166-6.259c-2.857-2.718-5.084-6.009-6.68-9.874C99.011,56.874,98.212,52.561,98.212,47.799 M111.824,47.799
		c0,2.801,0.433,5.364,1.302,7.688c0.868,2.324,2.114,4.342,3.74,6.05c1.624,1.709,3.57,3.039,5.839,3.99
		c2.269,0.953,4.803,1.43,7.604,1.43c2.801,0,5.336-0.477,7.604-1.43c2.269-0.951,4.215-2.281,5.84-3.99
		c1.624-1.708,2.87-3.726,3.739-6.05c0.868-2.325,1.303-4.888,1.303-7.688c0-2.744-0.435-5.294-1.303-7.646
		c-0.869-2.353-2.115-4.383-3.739-6.092c-1.625-1.708-3.571-3.038-5.84-3.991c-2.268-0.952-4.803-1.429-7.604-1.429
		c-2.801,0-5.335,0.477-7.604,1.429c-2.269,0.953-4.215,2.283-5.839,3.991c-1.626,1.709-2.872,3.739-3.74,6.092
		C112.257,42.505,111.824,45.055,111.824,47.799"/>
	<path clip-path="url(#SVGID_2_)" fill="#52648F" d="M206.636,33.514c-1.29-1.567-2.872-2.772-4.748-3.613
		c-1.877-0.84-4.047-1.26-6.511-1.26c-2.466,0-4.748,0.477-6.848,1.428c-2.101,0.953-3.922,2.283-5.462,3.991
		c-1.541,1.71-2.745,3.74-3.613,6.092c-0.869,2.353-1.302,4.903-1.302,7.647c0,2.801,0.433,5.364,1.302,7.688
		c0.868,2.325,2.058,4.341,3.571,6.049c1.512,1.71,3.29,3.04,5.336,3.992c2.044,0.953,4.243,1.428,6.595,1.428
		c2.689,0,5.07-0.559,7.142-1.68c2.072-1.12,3.782-2.689,5.126-4.706l10.923,8.15c-2.521,3.529-5.714,6.134-9.578,7.814
		c-3.866,1.681-7.844,2.521-11.932,2.521c-4.65,0-8.936-0.729-12.856-2.185c-3.921-1.456-7.31-3.542-10.166-6.26
		c-2.857-2.716-5.084-6.008-6.681-9.873c-1.596-3.865-2.394-8.178-2.394-12.939c0-4.761,0.798-9.075,2.394-12.94
		c1.597-3.866,3.824-7.156,6.681-9.873c2.856-2.717,6.245-4.803,10.166-6.26c3.92-1.456,8.206-2.185,12.856-2.185
		c1.681,0,3.431,0.155,5.251,0.462c1.82,0.309,3.614,0.799,5.378,1.471c1.765,0.672,3.458,1.569,5.083,2.688
		c1.624,1.122,3.08,2.494,4.37,4.118L206.636,33.514z"/>
	<path clip-path="url(#SVGID_2_)" fill="#52648F" d="M223.709,18.054h19.662c4.76,0,9.284,0.533,13.569,1.597
		s8.024,2.787,11.218,5.167c3.192,2.381,5.726,5.476,7.604,9.285c1.876,3.81,2.815,8.431,2.815,13.864
		c0,4.818-0.911,9.061-2.731,12.729c-1.821,3.67-4.271,6.751-7.352,9.242c-3.081,2.494-6.639,4.385-10.671,5.672
		c-4.033,1.289-8.264,1.934-12.688,1.934h-21.426V18.054z M236.817,65.443h6.806c3.024,0,5.84-0.307,8.444-0.924
		c2.604-0.615,4.858-1.639,6.764-3.066c1.904-1.429,3.402-3.306,4.495-5.63s1.639-5.168,1.639-8.528
		c0-2.913-0.546-5.448-1.639-7.604c-1.093-2.156-2.562-3.935-4.411-5.336c-1.848-1.4-4.021-2.45-6.512-3.151
		c-2.493-0.7-5.112-1.051-7.856-1.051h-7.729V65.443z"/>
	<polygon clip-path="url(#SVGID_2_)" fill="#52648F" points="283.409,18.054 296.517,18.054 296.517,65.443 320.8,65.443 
		320.8,77.544 283.409,77.544 	"/>
	<path clip-path="url(#SVGID_2_)" fill="#52648F" d="M347.645,18.054h10.84l25.879,59.49h-14.788l-5.125-12.604h-23.107
		l-4.957,12.604h-14.452L347.645,18.054z M352.687,35.363l-7.227,18.486h14.536L352.687,35.363z"/>
	<path clip-path="url(#SVGID_2_)" fill="#52648F" d="M83.872,83.152H15.84c0.002,0.867,0.004,1.735,0.006,2.603h68.032
		C83.876,84.888,83.874,84.02,83.872,83.152"/>
	<path clip-path="url(#SVGID_2_)" fill="#52648F" d="M83.878,28.733c-0.001-0.214-0.002-0.427-0.003-0.64
		c-0.001-0.434-0.002-0.868-0.003-1.301H15.84c0.001,0.22,0.001,0.44,0.002,0.66H15.84c0.001,0.214,0.002,0.427,0.003,0.641
		c0.001,0.433,0.002,0.867,0.003,1.301h68.032c-0.001-0.221-0.001-0.441-0.002-0.661H83.878z"/>
	<rect x="15.84" y="88.537" clip-path="url(#SVGID_2_)" fill="#52648F" width="67.813" height="6.651"/>
	<polygon clip-path="url(#SVGID_2_)" fill="#52648F" points="15.84,24.009 83.878,24.009 83.878,19.41 49.859,7.2 15.84,19.41 	"/>
	<path clip-path="url(#SVGID_2_)" fill="#C4A12E" d="M18.604,35.841c0-1.649,1.337-2.985,2.985-2.985h2.734
		c1.648,0,2.985,1.336,2.985,2.985v44.669h1.351V35.767c0-2.404-1.949-4.352-4.352-4.352h-2.702c-2.403,0-4.352,1.948-4.352,4.352
		v44.793h1.351V35.841z"/>
	<path clip-path="url(#SVGID_2_)" fill="#C4A12E" d="M25.477,36.184c0-0.914-0.624-1.657-1.391-1.657h-2.259
		c-0.767,0-1.391,0.743-1.391,1.657v43.593c1.379-0.555,3.695-0.604,5.041-0.05V36.184z"/>
	<path clip-path="url(#SVGID_2_)" fill="#C4A12E" d="M79.283,36.184c0-0.914-0.624-1.657-1.391-1.657h-2.259
		c-0.767,0-1.391,0.743-1.391,1.657v43.598c1.373-0.537,3.668-0.537,5.041,0V36.184z"/>
	<path clip-path="url(#SVGID_2_)" fill="#C4A12E" d="M78.112,31.415H75.41c-2.403,0-4.352,1.948-4.352,4.352V80.56h1.351V35.841
		c0-1.649,1.337-2.985,2.985-2.985h2.734c1.648,0,2.985,1.336,2.985,2.985V80.56h1.351V35.767
		C82.464,33.363,80.515,31.415,78.112,31.415"/>
	<path clip-path="url(#SVGID_2_)" fill="#C4A12E" d="M43.413,36.184c0-0.914-0.624-1.657-1.391-1.657h-2.259
		c-0.767,0-1.391,0.743-1.391,1.657v43.598c1.373-0.537,3.668-0.537,5.041,0V36.184z"/>
	<path clip-path="url(#SVGID_2_)" fill="#C4A12E" d="M42.242,31.415H39.54c-2.403,0-4.352,1.948-4.352,4.352V80.56h1.351V35.841
		c0-1.649,1.337-2.985,2.985-2.985h2.734c1.648,0,2.985,1.336,2.985,2.985V80.51h1.187v0.05h0.164V35.767
		C46.594,33.363,44.645,31.415,42.242,31.415"/>
	<path clip-path="url(#SVGID_2_)" fill="#52648F" d="M51.598,36.831c-0.221-1.634,0.925-3.137,2.559-3.358l2.709-0.366
		c1.633-0.22,3.137,0.925,3.358,2.559l5.969,44.205l1.339-0.18l-5.98-44.279c-0.321-2.382-2.513-4.052-4.895-3.731l-2.677,0.362
		c-2.382,0.322-4.052,2.513-3.731,4.895l5.98,44.279l1.339-0.182L51.598,36.831z"/>
	<path clip-path="url(#SVGID_2_)" fill="#52648F" d="M58.456,36.25c-0.122-0.906-0.84-1.559-1.601-1.456l-2.238,0.302
		c-0.76,0.103-1.279,0.923-1.157,1.829l5.835,43.205c1.289-0.715,3.563-1.022,4.996-0.674L58.456,36.25z"/>
	<path clip-path="url(#SVGID_2_)" fill="#52648F" d="M101.636,90.756c0-0.582,0.098-1.108,0.292-1.58
		c0.195-0.472,0.467-0.874,0.816-1.205c0.349-0.332,0.762-0.587,1.241-0.764c0.479-0.178,1.002-0.268,1.57-0.268
		c0.567,0,1.09,0.09,1.569,0.268c0.479,0.177,0.893,0.432,1.241,0.764c0.349,0.331,0.621,0.733,0.816,1.205
		c0.195,0.472,0.292,0.998,0.292,1.58c0,0.581-0.097,1.108-0.292,1.58c-0.195,0.472-0.467,0.874-0.816,1.205
		c-0.348,0.332-0.762,0.587-1.241,0.764c-0.479,0.178-1.002,0.268-1.569,0.268c-0.568,0-1.091-0.09-1.57-0.268
		c-0.479-0.177-0.892-0.432-1.241-0.764c-0.349-0.331-0.621-0.733-0.816-1.205C101.734,91.864,101.636,91.337,101.636,90.756
		 M103.298,90.756c0,0.342,0.053,0.655,0.159,0.938c0.106,0.284,0.258,0.531,0.456,0.739c0.198,0.209,0.436,0.371,0.713,0.488
		c0.277,0.116,0.587,0.174,0.929,0.174c0.342,0,0.651-0.058,0.928-0.174c0.277-0.117,0.515-0.279,0.713-0.488
		c0.198-0.208,0.351-0.455,0.456-0.739c0.106-0.282,0.159-0.596,0.159-0.938c0-0.335-0.053-0.646-0.159-0.934
		c-0.105-0.287-0.258-0.535-0.456-0.743c-0.198-0.209-0.436-0.371-0.713-0.488c-0.277-0.116-0.586-0.174-0.928-0.174
		c-0.342,0-0.652,0.058-0.929,0.174c-0.277,0.117-0.515,0.279-0.713,0.488c-0.198,0.208-0.35,0.456-0.456,0.743
		S103.298,90.421,103.298,90.756"/>
	<path clip-path="url(#SVGID_2_)" fill="#52648F" d="M111.228,87.124h2.81c0.37,0,0.72,0.036,1.052,0.107
		c0.332,0.072,0.622,0.191,0.872,0.359c0.249,0.168,0.448,0.394,0.595,0.677c0.147,0.284,0.22,0.639,0.22,1.062
		c0,0.513-0.133,0.949-0.4,1.308c-0.266,0.359-0.656,0.586-1.169,0.683l1.846,3.066h-1.918l-1.518-2.902h-0.79v2.902h-1.6V87.124z
		 M112.828,90.13h0.944c0.143,0,0.295-0.005,0.456-0.015c0.161-0.011,0.306-0.041,0.436-0.093s0.238-0.132,0.323-0.241
		c0.086-0.109,0.129-0.264,0.129-0.462c0-0.185-0.038-0.331-0.113-0.44c-0.076-0.11-0.171-0.194-0.287-0.252
		c-0.117-0.058-0.25-0.097-0.401-0.118c-0.15-0.02-0.297-0.03-0.441-0.03h-1.046V90.13z"/>
	<polygon clip-path="url(#SVGID_2_)" fill="#52648F" points="118.49,87.124 123.424,87.124 123.424,88.602 120.09,88.602 
		120.09,89.956 123.24,89.956 123.24,91.433 120.09,91.433 120.09,92.91 123.609,92.91 123.609,94.387 118.49,94.387 	"/>
	<path clip-path="url(#SVGID_2_)" fill="#52648F" d="M132.031,93.875c-0.472,0.245-0.964,0.424-1.477,0.532
		c-0.513,0.11-1.036,0.164-1.569,0.164c-0.568,0-1.092-0.089-1.57-0.266c-0.479-0.178-0.892-0.434-1.241-0.764
		c-0.349-0.332-0.621-0.734-0.816-1.206c-0.195-0.473-0.292-0.999-0.292-1.58s0.097-1.108,0.292-1.58
		c0.195-0.472,0.467-0.873,0.816-1.205c0.349-0.331,0.762-0.586,1.241-0.765c0.478-0.178,1.002-0.267,1.57-0.267
		c0.581,0,1.116,0.07,1.605,0.21c0.489,0.141,0.918,0.382,1.287,0.724l-1.128,1.23c-0.219-0.225-0.466-0.396-0.739-0.512
		s-0.615-0.175-1.025-0.175c-0.343,0-0.652,0.059-0.929,0.175c-0.277,0.116-0.515,0.278-0.713,0.486
		c-0.198,0.209-0.351,0.457-0.457,0.744c-0.105,0.287-0.158,0.599-0.158,0.934c0,0.342,0.053,0.654,0.158,0.938
		c0.106,0.284,0.259,0.53,0.457,0.739c0.198,0.208,0.436,0.371,0.713,0.487c0.277,0.115,0.586,0.174,0.929,0.174
		c0.348,0,0.649-0.039,0.902-0.118s0.455-0.159,0.605-0.241v-1.18h-1.302v-1.478h2.841V93.875z"/>
	<path clip-path="url(#SVGID_2_)" fill="#52648F" d="M133.6,90.756c0-0.582,0.098-1.108,0.292-1.58
		c0.195-0.472,0.467-0.874,0.816-1.205c0.349-0.332,0.762-0.587,1.241-0.764c0.479-0.178,1.002-0.268,1.57-0.268
		c0.567,0,1.09,0.09,1.569,0.268c0.479,0.177,0.893,0.432,1.241,0.764c0.349,0.331,0.621,0.733,0.816,1.205
		c0.195,0.472,0.292,0.998,0.292,1.58c0,0.581-0.097,1.108-0.292,1.58c-0.195,0.472-0.467,0.874-0.816,1.205
		c-0.348,0.332-0.762,0.587-1.241,0.764c-0.479,0.178-1.002,0.268-1.569,0.268c-0.568,0-1.091-0.09-1.57-0.268
		c-0.479-0.177-0.892-0.432-1.241-0.764c-0.349-0.331-0.621-0.733-0.816-1.205C133.698,91.864,133.6,91.337,133.6,90.756
		 M135.262,90.756c0,0.342,0.053,0.655,0.159,0.938c0.106,0.284,0.258,0.531,0.456,0.739c0.198,0.209,0.436,0.371,0.713,0.488
		c0.277,0.116,0.587,0.174,0.929,0.174c0.342,0,0.651-0.058,0.928-0.174c0.277-0.117,0.515-0.279,0.713-0.488
		c0.198-0.208,0.351-0.455,0.456-0.739c0.106-0.282,0.159-0.596,0.159-0.938c0-0.335-0.053-0.646-0.159-0.934
		c-0.105-0.287-0.258-0.535-0.456-0.743c-0.198-0.209-0.436-0.371-0.713-0.488c-0.277-0.116-0.586-0.174-0.928-0.174
		c-0.342,0-0.652,0.058-0.929,0.174c-0.277,0.117-0.515,0.279-0.713,0.488c-0.198,0.208-0.35,0.456-0.456,0.743
		S135.262,90.421,135.262,90.756"/>
	<polygon clip-path="url(#SVGID_2_)" fill="#52648F" points="143.089,87.124 145.263,87.124 148.351,92.171 148.372,92.171 
		148.372,87.124 149.972,87.124 149.972,94.387 147.88,94.387 144.71,89.217 144.689,89.217 144.689,94.387 143.089,94.387 	"/>
	<path clip-path="url(#SVGID_2_)" fill="#52648F" d="M160.363,89.012c-0.158-0.191-0.351-0.338-0.58-0.441
		c-0.229-0.102-0.494-0.153-0.795-0.153s-0.58,0.058-0.836,0.175c-0.256,0.116-0.478,0.278-0.666,0.487
		c-0.189,0.208-0.336,0.456-0.442,0.743s-0.159,0.599-0.159,0.934c0,0.342,0.053,0.655,0.159,0.938s0.252,0.53,0.436,0.738
		c0.185,0.209,0.402,0.371,0.652,0.488c0.249,0.116,0.518,0.174,0.805,0.174c0.328,0,0.619-0.068,0.872-0.205
		c0.253-0.137,0.462-0.329,0.626-0.575l1.333,0.995c-0.307,0.432-0.697,0.749-1.169,0.954c-0.472,0.206-0.958,0.308-1.457,0.308
		c-0.568,0-1.091-0.089-1.57-0.267c-0.478-0.177-0.892-0.432-1.241-0.764c-0.348-0.331-0.62-0.733-0.815-1.205
		c-0.195-0.473-0.293-0.999-0.293-1.58s0.098-1.108,0.293-1.58c0.195-0.472,0.467-0.873,0.815-1.205
		c0.349-0.332,0.763-0.586,1.241-0.764c0.479-0.179,1.002-0.268,1.57-0.268c0.205,0,0.419,0.02,0.641,0.057
		c0.223,0.038,0.441,0.098,0.657,0.18c0.215,0.082,0.422,0.191,0.62,0.328c0.199,0.137,0.376,0.304,0.534,0.503L160.363,89.012z"/>
	<path clip-path="url(#SVGID_2_)" fill="#52648F" d="M163.205,87.124h2.81c0.37,0,0.72,0.036,1.052,0.107
		c0.332,0.072,0.622,0.191,0.872,0.359c0.249,0.168,0.448,0.394,0.595,0.677c0.147,0.284,0.22,0.639,0.22,1.062
		c0,0.513-0.133,0.949-0.4,1.308c-0.266,0.359-0.656,0.586-1.169,0.683l1.846,3.066h-1.918l-1.518-2.902h-0.79v2.902h-1.6V87.124z
		 M164.805,90.13h0.944c0.143,0,0.295-0.005,0.456-0.015c0.161-0.011,0.306-0.041,0.436-0.093s0.238-0.132,0.323-0.241
		c0.086-0.109,0.129-0.264,0.129-0.462c0-0.185-0.038-0.331-0.113-0.44c-0.076-0.11-0.171-0.194-0.287-0.252
		c-0.117-0.058-0.25-0.097-0.401-0.118c-0.15-0.02-0.297-0.03-0.441-0.03h-1.046V90.13z"/>
	<rect x="170.385" y="87.124" clip-path="url(#SVGID_2_)" fill="#52648F" width="1.6" height="7.263"/>
	<polygon clip-path="url(#SVGID_2_)" fill="#52648F" points="174.006,87.124 176.427,87.124 178.099,91.864 178.119,91.864 
		179.801,87.124 182.212,87.124 182.212,94.387 180.612,94.387 180.612,88.817 180.591,88.817 178.684,94.387 177.463,94.387 
		175.627,88.817 175.606,88.817 175.606,94.387 174.006,94.387 	"/>
	<rect x="184.233" y="87.124" clip-path="url(#SVGID_2_)" fill="#52648F" width="1.6" height="7.263"/>
	<polygon clip-path="url(#SVGID_2_)" fill="#52648F" points="187.854,87.124 190.028,87.124 193.117,92.171 193.138,92.171 
		193.138,87.124 194.737,87.124 194.737,94.387 192.646,94.387 189.476,89.217 189.455,89.217 189.455,94.387 187.854,94.387 	"/>
	<path clip-path="url(#SVGID_2_)" fill="#52648F" d="M199.169,87.124h1.323l3.159,7.264h-1.805l-0.626-1.539h-2.821l-0.605,1.539
		h-1.764L199.169,87.124z M199.784,89.237l-0.882,2.257h1.775L199.784,89.237z"/>
	<polygon clip-path="url(#SVGID_2_)" fill="#52648F" points="204.996,87.124 206.596,87.124 206.596,92.91 209.56,92.91 
		209.56,94.387 204.996,94.387 	"/>
	<path clip-path="url(#SVGID_2_)" fill="#52648F" d="M214.607,87.124h2.4c0.581,0,1.134,0.065,1.656,0.195
		c0.523,0.13,0.98,0.341,1.369,0.631c0.391,0.291,0.699,0.668,0.929,1.133c0.229,0.466,0.344,1.03,0.344,1.693
		c0,0.589-0.111,1.105-0.333,1.554c-0.224,0.448-0.522,0.825-0.898,1.129s-0.81,0.535-1.303,0.692
		c-0.492,0.157-1.008,0.235-1.548,0.235h-2.616V87.124z M216.207,92.91h0.831c0.369,0,0.714-0.038,1.031-0.113
		c0.318-0.075,0.593-0.2,0.826-0.374c0.232-0.175,0.415-0.403,0.548-0.688c0.134-0.283,0.201-0.631,0.201-1.041
		c0-0.355-0.067-0.665-0.201-0.93c-0.133-0.263-0.312-0.479-0.538-0.65s-0.491-0.299-0.795-0.385
		c-0.304-0.085-0.624-0.128-0.959-0.128h-0.944V92.91z"/>
	<polygon clip-path="url(#SVGID_2_)" fill="#52648F" points="223.062,87.124 227.995,87.124 227.995,88.602 224.661,88.602 
		224.661,89.956 227.812,89.956 227.812,91.433 224.661,91.433 224.661,92.91 228.181,92.91 228.181,94.387 223.062,94.387 	"/>
	<polygon clip-path="url(#SVGID_2_)" fill="#52648F" points="230.241,87.124 235.114,87.124 235.114,88.602 231.842,88.602 
		231.842,90.079 234.868,90.079 234.868,91.556 231.842,91.556 231.842,94.387 230.241,94.387 	"/>
	<polygon clip-path="url(#SVGID_2_)" fill="#52648F" points="236.889,87.124 241.822,87.124 241.822,88.602 238.488,88.602 
		238.488,89.956 241.639,89.956 241.639,91.433 238.488,91.433 238.488,92.91 242.008,92.91 242.008,94.387 236.889,94.387 	"/>
	<polygon clip-path="url(#SVGID_2_)" fill="#52648F" points="243.854,87.124 246.028,87.124 249.116,92.171 249.138,92.171 
		249.138,87.124 250.737,87.124 250.737,94.387 248.646,94.387 245.476,89.217 245.454,89.217 245.454,94.387 243.854,94.387 	"/>
	<path clip-path="url(#SVGID_2_)" fill="#52648F" d="M256.472,88.898c-0.13-0.163-0.306-0.285-0.528-0.363
		c-0.223-0.079-0.433-0.118-0.631-0.118c-0.117,0-0.236,0.014-0.359,0.041s-0.239,0.07-0.349,0.128s-0.198,0.135-0.267,0.231
		c-0.068,0.096-0.103,0.212-0.103,0.349c0,0.219,0.082,0.386,0.246,0.503c0.164,0.116,0.371,0.215,0.62,0.297
		c0.25,0.082,0.519,0.164,0.806,0.246s0.556,0.199,0.806,0.349c0.249,0.151,0.456,0.353,0.62,0.605s0.247,0.592,0.247,1.016
		c0,0.404-0.076,0.756-0.227,1.057s-0.354,0.551-0.61,0.749s-0.554,0.346-0.893,0.44c-0.338,0.096-0.696,0.145-1.072,0.145
		c-0.472,0-0.909-0.072-1.312-0.216s-0.78-0.376-1.128-0.697l1.138-1.252c0.164,0.22,0.371,0.388,0.621,0.508s0.508,0.18,0.774,0.18
		c0.13,0,0.262-0.016,0.395-0.047c0.134-0.03,0.253-0.076,0.359-0.138c0.105-0.062,0.191-0.141,0.257-0.236
		c0.064-0.096,0.097-0.209,0.097-0.338c0-0.219-0.083-0.392-0.251-0.519c-0.168-0.126-0.378-0.233-0.631-0.323
		c-0.253-0.088-0.526-0.178-0.82-0.267c-0.295-0.089-0.567-0.209-0.82-0.358c-0.253-0.151-0.463-0.35-0.631-0.596
		s-0.252-0.57-0.252-0.975c0-0.39,0.077-0.731,0.231-1.025c0.153-0.295,0.358-0.54,0.615-0.738c0.257-0.199,0.552-0.348,0.887-0.447
		c0.335-0.099,0.681-0.148,1.037-0.148c0.41,0,0.806,0.059,1.19,0.175c0.382,0.116,0.728,0.311,1.035,0.585L256.472,88.898z"/>
	<polygon clip-path="url(#SVGID_2_)" fill="#52648F" points="259.395,87.124 264.329,87.124 264.329,88.602 260.995,88.602 
		260.995,89.956 264.145,89.956 264.145,91.433 260.995,91.433 260.995,92.91 264.514,92.91 264.514,94.387 259.395,94.387 	"/>
	<polygon clip-path="url(#SVGID_2_)" fill="#52648F" points="270.022,87.124 271.622,87.124 271.622,92.91 274.587,92.91 
		274.587,94.387 270.022,94.387 	"/>
	<path clip-path="url(#SVGID_2_)" fill="#52648F" d="M278.425,87.124h1.323l3.158,7.264h-1.805l-0.626-1.539h-2.821l-0.604,1.539
		h-1.765L278.425,87.124z M279.04,89.237l-0.883,2.257h1.775L279.04,89.237z"/>
	<polygon clip-path="url(#SVGID_2_)" fill="#52648F" points="282.773,87.124 284.518,87.124 285.677,91.782 285.696,91.782 
		287.216,87.124 288.702,87.124 290.21,91.905 290.231,91.905 291.451,87.124 293.072,87.124 290.949,94.387 289.523,94.387 
		287.923,89.36 287.902,89.36 286.303,94.387 284.928,94.387 	"/>
	<polygon clip-path="url(#SVGID_2_)" fill="#52648F" points="296.294,91.289 293.564,87.124 295.555,87.124 297.094,89.843 
		298.725,87.124 300.622,87.124 297.894,91.289 297.894,94.387 296.294,94.387 	"/>
	<polygon clip-path="url(#SVGID_2_)" fill="#52648F" points="301.781,87.124 306.716,87.124 306.716,88.602 303.382,88.602 
		303.382,89.956 306.531,89.956 306.531,91.433 303.382,91.433 303.382,92.91 306.9,92.91 306.9,94.387 301.781,94.387 	"/>
	<path clip-path="url(#SVGID_2_)" fill="#52648F" d="M308.747,87.124h2.811c0.369,0,0.72,0.036,1.052,0.107
		c0.332,0.072,0.622,0.191,0.872,0.359c0.249,0.168,0.447,0.394,0.595,0.677c0.147,0.284,0.22,0.639,0.22,1.062
		c0,0.513-0.133,0.949-0.399,1.308c-0.267,0.359-0.656,0.586-1.169,0.683l1.846,3.066h-1.918l-1.519-2.902h-0.789v2.902h-1.601
		V87.124z M310.348,90.13h0.943c0.144,0,0.295-0.005,0.456-0.015c0.161-0.011,0.306-0.041,0.437-0.093
		c0.13-0.052,0.237-0.132,0.322-0.241c0.086-0.109,0.129-0.264,0.129-0.462c0-0.185-0.037-0.331-0.112-0.44
		c-0.076-0.11-0.171-0.194-0.287-0.252c-0.117-0.058-0.25-0.097-0.401-0.118c-0.149-0.02-0.297-0.03-0.44-0.03h-1.046V90.13z"/>
	<path clip-path="url(#SVGID_2_)" fill="#52648F" d="M319.538,88.898c-0.13-0.163-0.306-0.285-0.528-0.363
		c-0.223-0.079-0.433-0.118-0.631-0.118c-0.117,0-0.237,0.014-0.359,0.041c-0.123,0.027-0.239,0.07-0.349,0.128
		s-0.198,0.135-0.267,0.231c-0.068,0.096-0.103,0.212-0.103,0.349c0,0.219,0.082,0.386,0.246,0.503
		c0.164,0.116,0.371,0.215,0.62,0.297c0.25,0.082,0.519,0.164,0.806,0.246s0.556,0.199,0.806,0.349
		c0.249,0.151,0.456,0.353,0.62,0.605s0.247,0.592,0.247,1.016c0,0.404-0.076,0.756-0.227,1.057s-0.354,0.551-0.61,0.749
		s-0.554,0.346-0.893,0.44c-0.338,0.096-0.696,0.145-1.072,0.145c-0.472,0-0.91-0.072-1.312-0.216
		c-0.403-0.144-0.78-0.376-1.128-0.697l1.138-1.252c0.164,0.22,0.371,0.388,0.621,0.508s0.508,0.18,0.774,0.18
		c0.13,0,0.262-0.016,0.395-0.047c0.134-0.03,0.253-0.076,0.359-0.138c0.105-0.062,0.191-0.141,0.257-0.236
		c0.064-0.096,0.097-0.209,0.097-0.338c0-0.219-0.083-0.392-0.251-0.519c-0.168-0.126-0.378-0.233-0.631-0.323
		c-0.253-0.088-0.526-0.178-0.82-0.267c-0.295-0.089-0.567-0.209-0.82-0.358c-0.253-0.151-0.463-0.35-0.632-0.596
		c-0.167-0.246-0.251-0.57-0.251-0.975c0-0.39,0.077-0.731,0.231-1.025c0.153-0.295,0.358-0.54,0.615-0.738
		c0.257-0.199,0.552-0.348,0.887-0.447c0.335-0.099,0.681-0.148,1.037-0.148c0.41,0,0.806,0.059,1.189,0.175
		c0.383,0.116,0.729,0.311,1.036,0.585L319.538,88.898z"/>
	<path clip-path="url(#SVGID_2_)" fill="#52648F" d="M328.391,87.124h1.323l3.159,7.264h-1.806l-0.626-1.539h-2.82l-0.605,1.539
		h-1.764L328.391,87.124z M329.006,89.237l-0.882,2.257h1.774L329.006,89.237z"/>
	<path clip-path="url(#SVGID_2_)" fill="#52648F" d="M337.756,88.898c-0.13-0.163-0.306-0.285-0.527-0.363
		c-0.224-0.079-0.434-0.118-0.631-0.118c-0.117,0-0.237,0.014-0.36,0.041s-0.239,0.07-0.348,0.128
		c-0.11,0.058-0.198,0.135-0.268,0.231c-0.067,0.096-0.102,0.212-0.102,0.349c0,0.219,0.082,0.386,0.246,0.503
		c0.164,0.116,0.371,0.215,0.62,0.297c0.25,0.082,0.518,0.164,0.806,0.246c0.287,0.082,0.555,0.199,0.805,0.349
		c0.249,0.151,0.456,0.353,0.62,0.605s0.247,0.592,0.247,1.016c0,0.404-0.076,0.756-0.226,1.057
		c-0.151,0.301-0.354,0.551-0.611,0.749c-0.256,0.198-0.553,0.346-0.892,0.44c-0.339,0.096-0.696,0.145-1.072,0.145
		c-0.473,0-0.91-0.072-1.313-0.216c-0.402-0.144-0.779-0.376-1.128-0.697l1.139-1.252c0.163,0.22,0.37,0.388,0.62,0.508
		s0.509,0.18,0.774,0.18c0.13,0,0.262-0.016,0.395-0.047c0.135-0.03,0.254-0.076,0.359-0.138c0.106-0.062,0.192-0.141,0.257-0.236
		c0.065-0.096,0.098-0.209,0.098-0.338c0-0.219-0.083-0.392-0.251-0.519c-0.168-0.126-0.379-0.233-0.632-0.323
		c-0.253-0.088-0.525-0.178-0.819-0.267c-0.295-0.089-0.568-0.209-0.821-0.358c-0.253-0.151-0.463-0.35-0.631-0.596
		c-0.167-0.246-0.251-0.57-0.251-0.975c0-0.39,0.077-0.731,0.23-1.025c0.153-0.295,0.358-0.54,0.615-0.738
		c0.257-0.199,0.552-0.348,0.887-0.447c0.336-0.099,0.682-0.148,1.037-0.148c0.41,0,0.807,0.059,1.19,0.175
		c0.382,0.116,0.728,0.311,1.036,0.585L337.756,88.898z"/>
	<path clip-path="url(#SVGID_2_)" fill="#52648F" d="M344.209,88.898c-0.131-0.163-0.307-0.285-0.529-0.363
		c-0.222-0.079-0.432-0.118-0.631-0.118c-0.116,0-0.235,0.014-0.358,0.041s-0.239,0.07-0.35,0.128
		c-0.108,0.058-0.198,0.135-0.266,0.231c-0.069,0.096-0.104,0.212-0.104,0.349c0,0.219,0.082,0.386,0.246,0.503
		c0.164,0.116,0.371,0.215,0.621,0.297c0.249,0.082,0.519,0.164,0.805,0.246c0.288,0.082,0.556,0.199,0.806,0.349
		c0.25,0.151,0.457,0.353,0.621,0.605s0.246,0.592,0.246,1.016c0,0.404-0.076,0.756-0.227,1.057s-0.354,0.551-0.609,0.749
		c-0.257,0.198-0.555,0.346-0.893,0.44c-0.339,0.096-0.696,0.145-1.072,0.145c-0.472,0-0.909-0.072-1.312-0.216
		c-0.404-0.144-0.78-0.376-1.129-0.697l1.139-1.252c0.164,0.22,0.371,0.388,0.621,0.508c0.249,0.12,0.507,0.18,0.774,0.18
		c0.13,0,0.262-0.016,0.395-0.047c0.133-0.03,0.253-0.076,0.359-0.138c0.105-0.062,0.19-0.141,0.257-0.236
		c0.064-0.096,0.097-0.209,0.097-0.338c0-0.219-0.084-0.392-0.251-0.519c-0.168-0.126-0.379-0.233-0.631-0.323
		c-0.253-0.088-0.527-0.178-0.821-0.267s-0.567-0.209-0.82-0.358c-0.253-0.151-0.463-0.35-0.631-0.596s-0.252-0.57-0.252-0.975
		c0-0.39,0.077-0.731,0.231-1.025c0.154-0.295,0.359-0.54,0.616-0.738c0.256-0.199,0.552-0.348,0.887-0.447
		c0.335-0.099,0.68-0.148,1.036-0.148c0.41,0,0.807,0.059,1.189,0.175s0.729,0.311,1.037,0.585L344.209,88.898z"/>
	<path clip-path="url(#SVGID_2_)" fill="#52648F" d="M346.681,90.756c0-0.582,0.098-1.108,0.293-1.58
		c0.194-0.472,0.466-0.874,0.815-1.205c0.349-0.332,0.762-0.587,1.242-0.764c0.478-0.178,1-0.268,1.568-0.268
		c0.567,0,1.091,0.09,1.569,0.268c0.479,0.177,0.893,0.432,1.241,0.764c0.349,0.331,0.621,0.733,0.815,1.205
		c0.195,0.472,0.292,0.998,0.292,1.58c0,0.581-0.097,1.108-0.292,1.58c-0.194,0.472-0.467,0.874-0.815,1.205
		c-0.349,0.332-0.763,0.587-1.241,0.764c-0.479,0.178-1.002,0.268-1.569,0.268c-0.568,0-1.091-0.09-1.568-0.268
		c-0.48-0.177-0.894-0.432-1.242-0.764c-0.35-0.331-0.621-0.733-0.815-1.205C346.778,91.864,346.681,91.337,346.681,90.756
		 M348.343,90.756c0,0.342,0.053,0.655,0.159,0.938c0.105,0.284,0.258,0.531,0.456,0.739c0.198,0.209,0.437,0.371,0.713,0.488
		c0.277,0.116,0.587,0.174,0.929,0.174s0.651-0.058,0.928-0.174c0.277-0.117,0.515-0.279,0.713-0.488
		c0.199-0.208,0.351-0.455,0.456-0.739c0.106-0.282,0.16-0.596,0.16-0.938c0-0.335-0.054-0.646-0.16-0.934
		c-0.105-0.287-0.257-0.535-0.456-0.743c-0.198-0.209-0.436-0.371-0.713-0.488c-0.276-0.116-0.586-0.174-0.928-0.174
		s-0.651,0.058-0.929,0.174c-0.276,0.117-0.515,0.279-0.713,0.488c-0.198,0.208-0.351,0.456-0.456,0.743
		C348.396,90.109,348.343,90.421,348.343,90.756"/>
	<path clip-path="url(#SVGID_2_)" fill="#52648F" d="M360.919,89.012c-0.157-0.191-0.351-0.338-0.58-0.441
		c-0.229-0.102-0.494-0.153-0.795-0.153s-0.579,0.058-0.836,0.175c-0.256,0.116-0.479,0.278-0.667,0.487
		c-0.188,0.208-0.335,0.456-0.44,0.743c-0.106,0.287-0.16,0.599-0.16,0.934c0,0.342,0.054,0.655,0.16,0.938
		c0.105,0.283,0.251,0.53,0.436,0.738c0.185,0.209,0.401,0.371,0.651,0.488c0.25,0.116,0.519,0.174,0.806,0.174
		c0.328,0,0.618-0.068,0.872-0.205c0.253-0.137,0.461-0.329,0.625-0.575l1.334,0.995c-0.308,0.432-0.697,0.749-1.17,0.954
		c-0.472,0.206-0.957,0.308-1.456,0.308c-0.568,0-1.092-0.089-1.569-0.267c-0.48-0.177-0.893-0.432-1.241-0.764
		c-0.35-0.331-0.621-0.733-0.815-1.205c-0.195-0.473-0.293-0.999-0.293-1.58s0.098-1.108,0.293-1.58
		c0.194-0.472,0.466-0.873,0.815-1.205c0.349-0.332,0.761-0.586,1.241-0.764c0.478-0.179,1.001-0.268,1.569-0.268
		c0.205,0,0.419,0.02,0.641,0.057c0.223,0.038,0.441,0.098,0.657,0.18c0.215,0.082,0.422,0.191,0.62,0.328s0.376,0.304,0.532,0.503
		L360.919,89.012z"/>
	<rect x="363.729" y="87.124" clip-path="url(#SVGID_2_)" fill="#52648F" width="1.601" height="7.263"/>
	<path clip-path="url(#SVGID_2_)" fill="#52648F" d="M369.74,87.124h1.323l3.159,7.264h-1.806l-0.625-1.539h-2.821l-0.605,1.539
		h-1.765L369.74,87.124z M370.355,89.237l-0.882,2.257h1.774L370.355,89.237z"/>
	<polygon clip-path="url(#SVGID_2_)" fill="#52648F" points="375.987,88.54 373.916,88.54 373.916,87.124 379.66,87.124 
		379.66,88.54 377.588,88.54 377.588,94.387 375.987,94.387 	"/>
	<rect x="381.014" y="87.124" clip-path="url(#SVGID_2_)" fill="#52648F" width="1.602" height="7.263"/>
	<path clip-path="url(#SVGID_2_)" fill="#52648F" d="M384.245,90.756c0-0.582,0.098-1.108,0.293-1.58
		c0.194-0.472,0.466-0.874,0.815-1.205c0.349-0.332,0.762-0.587,1.241-0.764c0.479-0.178,1-0.268,1.569-0.268
		c0.567,0,1.091,0.09,1.569,0.268c0.479,0.177,0.893,0.432,1.241,0.764c0.349,0.331,0.62,0.733,0.815,1.205s0.292,0.998,0.292,1.58
		c0,0.581-0.097,1.108-0.292,1.58s-0.467,0.874-0.815,1.205c-0.349,0.332-0.763,0.587-1.241,0.764
		c-0.479,0.178-1.002,0.268-1.569,0.268c-0.569,0-1.091-0.09-1.569-0.268c-0.479-0.177-0.893-0.432-1.241-0.764
		c-0.35-0.331-0.621-0.733-0.815-1.205C384.343,91.864,384.245,91.337,384.245,90.756 M385.907,90.756
		c0,0.342,0.053,0.655,0.159,0.938c0.105,0.284,0.258,0.531,0.456,0.739c0.197,0.209,0.437,0.371,0.713,0.488
		c0.276,0.116,0.587,0.174,0.929,0.174s0.651-0.058,0.928-0.174c0.277-0.117,0.515-0.279,0.712-0.488
		c0.2-0.208,0.352-0.455,0.457-0.739c0.106-0.282,0.16-0.596,0.16-0.938c0-0.335-0.054-0.646-0.16-0.934
		c-0.105-0.287-0.257-0.535-0.457-0.743c-0.197-0.209-0.435-0.371-0.712-0.488c-0.276-0.116-0.586-0.174-0.928-0.174
		s-0.652,0.058-0.929,0.174c-0.276,0.117-0.516,0.279-0.713,0.488c-0.198,0.208-0.351,0.456-0.456,0.743
		C385.96,90.109,385.907,90.421,385.907,90.756"/>
	<polygon clip-path="url(#SVGID_2_)" fill="#52648F" points="393.733,87.124 395.908,87.124 398.996,92.171 399.017,92.171 
		399.017,87.124 400.617,87.124 400.617,94.387 398.524,94.387 395.354,89.217 395.334,89.217 395.334,94.387 393.733,94.387 	"/>
</g>
</svg>
